<svg width="100" height="100" viewBox="0 0 100 100" fill="none" xmlns="http://www.w3.org/2000/svg">
<path d="M7.60846 8.65364C7.14061 9.66794 6.35133 10.4679 5.30848 10.9215L0.969223 12.8037C0.681091 12.9298 0.435959 13.1371 0.263817 13.4004C0.0916824 13.6636 0 13.9713 0 14.2858C0 14.6004 0.0916824 14.9081 0.263817 15.1713C0.435959 15.4345 0.681091 15.6419 0.969223 15.768L5.27277 17.6502C6.30032 18.0843 7.12223 18.896 7.56918 19.918L10.9763 27.6574C11.5834 28.8752 13.4156 28.8752 14.0263 27.6574L17.4334 19.918C17.8921 18.9041 18.7103 18.0961 19.7298 17.6502L24.0333 15.768C24.3215 15.6419 24.5666 15.4345 24.7388 15.1713C24.9109 14.9081 25.0026 14.6004 25.0026 14.2858C25.0026 13.9713 24.9109 13.6636 24.7388 13.4004C24.5666 13.1371 24.3215 12.9298 24.0333 12.8037L19.7298 10.9215C18.7023 10.4874 17.8803 9.6757 17.4334 8.65364L14.0263 0.914294C13.4191 -0.303574 11.587 -0.303574 10.9763 0.914294L7.60846 8.65364ZM50.0617 11.3037C49.7242 12.0062 49.1429 12.5621 48.426 12.868L45.3403 14.1537C44.4118 14.5716 44.4118 15.7858 45.3403 16.2037L48.426 17.4894C49.1525 17.7805 49.7385 18.3409 50.0617 19.0537L52.476 24.3752C52.9224 25.2074 54.226 25.2074 54.6688 24.3752L57.0831 19.0537C57.4207 18.3512 58.002 17.7953 58.7188 17.4894L61.8045 16.2037C62.0095 16.1219 62.1853 15.9805 62.3091 15.7978C62.4329 15.6151 62.4991 15.3994 62.4991 15.1787C62.4991 14.958 62.4329 14.7423 62.3091 14.5596C62.1853 14.3769 62.0095 14.2355 61.8045 14.1537L58.7188 12.868C57.9923 12.5769 57.4063 12.0165 57.0831 11.3037L54.6688 5.98219C54.2224 5.15004 52.9188 5.15004 52.476 5.98219L50.0617 11.3037ZM92.8578 85.715L98.7935 91.5258C99.1759 91.9061 99.4793 92.3583 99.6864 92.8563C99.8934 93.3543 100 93.8883 100 94.4276C100 94.9669 99.8934 95.5009 99.6864 95.9989C99.4793 96.4969 99.1759 96.9491 98.7935 97.3294L97.3292 98.7937C95.7578 100.408 93.1507 100.408 91.5793 98.758L85.715 92.8829L85.7258 92.8722L35.7154 42.8575L29.7369 36.9039C28.1833 35.3146 28.1833 32.4753 29.7369 30.9217L30.9154 29.7395C32.5011 28.1788 35.7154 28.5717 37.5011 30.3574L92.8578 85.715ZM14.4656 51.0647C15.2018 50.7098 15.7851 50.1011 16.1084 49.3504L18.5548 43.5575C19.012 42.6254 20.3119 42.6254 20.7334 43.5575L23.1798 49.354C23.5038 50.1033 24.087 50.7107 24.8226 51.0647L27.8833 52.4647C28.8012 52.929 28.8012 54.2505 27.8833 54.679L24.8262 56.079C24.09 56.434 23.5066 57.0427 23.1833 57.7933L20.7334 63.5863C20.2762 64.5184 18.9762 64.5184 18.5548 63.5863L16.1084 57.7933C15.7851 57.0427 15.2018 56.434 14.4656 56.079L11.4049 54.679C10.487 54.2147 10.487 52.8933 11.4049 52.4647L14.4656 51.0647ZM64.2866 42.8575C63.3394 42.8575 62.431 42.4812 61.7613 41.8115C61.0915 41.1417 60.7152 40.2333 60.7152 39.286C60.7152 38.3388 61.0915 37.4304 61.7613 36.7606C62.431 36.0909 63.3394 35.7146 64.2866 35.7146C65.2338 35.7146 66.1422 36.0909 66.812 36.7606C67.4818 37.4304 67.858 38.3388 67.858 39.286C67.858 40.2333 67.4818 41.1417 66.812 41.8115C66.1422 42.4812 65.2338 42.8575 64.2866 42.8575ZM0.00137329 39.286C0.00137329 40.2333 0.377647 41.1417 1.04741 41.8115C1.71718 42.4812 2.62559 42.8575 3.57278 42.8575C4.51997 42.8575 5.42838 42.4812 6.09814 41.8115C6.76791 41.1417 7.14418 40.2333 7.14418 39.286C7.14418 38.3388 6.76791 37.4304 6.09814 36.7606C5.42838 36.0909 4.51997 35.7146 3.57278 35.7146C2.62559 35.7146 1.71718 36.0909 1.04741 36.7606C0.377647 37.4304 0.00137329 38.3388 0.00137329 39.286ZM39.2868 7.14292C38.3396 7.14292 37.4312 6.76664 36.7614 6.09686C36.0917 5.42708 35.7154 4.51867 35.7154 3.57146C35.7154 2.62425 36.0917 1.71583 36.7614 1.04606C37.4312 0.376277 38.3396 0 39.2868 0C40.234 0 41.1424 0.376277 41.8122 1.04606C42.4819 1.71583 42.8582 2.62425 42.8582 3.57146C42.8582 4.51867 42.4819 5.42708 41.8122 6.09686C41.1424 6.76664 40.234 7.14292 39.2868 7.14292ZM35.7154 67.8577C35.7154 68.8049 36.0917 69.7133 36.7614 70.3831C37.4312 71.0529 38.3396 71.4292 39.2868 71.4292C40.234 71.4292 41.1424 71.0529 41.8122 70.3831C42.4819 69.7133 42.8582 68.8049 42.8582 67.8577C42.8582 66.9105 42.4819 66.0021 41.8122 65.3323C41.1424 64.6625 40.234 64.2863 39.2868 64.2863C38.3396 64.2863 37.4312 64.6625 36.7614 65.3323C36.0917 66.0021 35.7154 66.9105 35.7154 67.8577Z" fill="white"/>
</svg>
